<mxfile host="app.diagrams.net" modified="2024-03-27T12:24:28.634Z" agent="Mozilla/5.0 (Windows NT 10.0; Win64; x64) AppleWebKit/537.36 (KHTML, like Gecko) Chrome/123.0.0.0 Safari/537.36" etag="PRBUNM1LnX1Y0d4Ivue-" version="24.2.0" type="device">
  <diagram name="PaginÄƒ-1" id="uq4gwSsp4wm4n7D81KUX">
    <mxGraphModel dx="655" dy="565" grid="1" gridSize="10" guides="1" tooltips="1" connect="1" arrows="1" fold="1" page="1" pageScale="1" pageWidth="1600" pageHeight="900" math="0" shadow="0">
      <root>
        <mxCell id="0" />
        <mxCell id="1" parent="0" />
        <mxCell id="TgEvD71i9HujsNccT_gt-6" style="edgeStyle=orthogonalEdgeStyle;rounded=0;orthogonalLoop=1;jettySize=auto;html=1;entryX=0;entryY=0.5;entryDx=0;entryDy=0;" edge="1" parent="1" source="TgEvD71i9HujsNccT_gt-1" target="TgEvD71i9HujsNccT_gt-3">
          <mxGeometry relative="1" as="geometry" />
        </mxCell>
        <mxCell id="TgEvD71i9HujsNccT_gt-1" value="" style="ellipse;whiteSpace=wrap;html=1;aspect=fixed;fillColor=#030303;" vertex="1" parent="1">
          <mxGeometry x="40" y="160" width="30" height="30" as="geometry" />
        </mxCell>
        <mxCell id="TgEvD71i9HujsNccT_gt-2" value="Start" style="text;html=1;align=center;verticalAlign=middle;whiteSpace=wrap;rounded=0;" vertex="1" parent="1">
          <mxGeometry x="25" y="120" width="60" height="30" as="geometry" />
        </mxCell>
        <mxCell id="TgEvD71i9HujsNccT_gt-9" style="edgeStyle=orthogonalEdgeStyle;rounded=0;orthogonalLoop=1;jettySize=auto;html=1;exitX=0.5;exitY=1;exitDx=0;exitDy=0;entryX=0.5;entryY=0;entryDx=0;entryDy=0;" edge="1" parent="1" source="TgEvD71i9HujsNccT_gt-3" target="TgEvD71i9HujsNccT_gt-8">
          <mxGeometry relative="1" as="geometry" />
        </mxCell>
        <mxCell id="TgEvD71i9HujsNccT_gt-18" value="No" style="edgeLabel;html=1;align=center;verticalAlign=middle;resizable=0;points=[];" vertex="1" connectable="0" parent="TgEvD71i9HujsNccT_gt-9">
          <mxGeometry x="-0.0567" relative="1" as="geometry">
            <mxPoint as="offset" />
          </mxGeometry>
        </mxCell>
        <mxCell id="TgEvD71i9HujsNccT_gt-3" value="" style="rhombus;whiteSpace=wrap;html=1;" vertex="1" parent="1">
          <mxGeometry x="130" y="135" width="80" height="80" as="geometry" />
        </mxCell>
        <mxCell id="TgEvD71i9HujsNccT_gt-11" style="edgeStyle=orthogonalEdgeStyle;rounded=0;orthogonalLoop=1;jettySize=auto;html=1;entryX=0;entryY=0.5;entryDx=0;entryDy=0;exitX=1;exitY=0.5;exitDx=0;exitDy=0;" edge="1" parent="1" source="TgEvD71i9HujsNccT_gt-3" target="TgEvD71i9HujsNccT_gt-7">
          <mxGeometry relative="1" as="geometry" />
        </mxCell>
        <mxCell id="TgEvD71i9HujsNccT_gt-17" value="Yes" style="edgeLabel;html=1;align=center;verticalAlign=middle;resizable=0;points=[];" vertex="1" connectable="0" parent="TgEvD71i9HujsNccT_gt-11">
          <mxGeometry x="-0.1441" y="2" relative="1" as="geometry">
            <mxPoint x="6" y="2" as="offset" />
          </mxGeometry>
        </mxCell>
        <mxCell id="TgEvD71i9HujsNccT_gt-4" value="Got Account" style="text;html=1;align=center;verticalAlign=middle;whiteSpace=wrap;rounded=0;" vertex="1" parent="1">
          <mxGeometry x="140" y="160" width="60" height="30" as="geometry" />
        </mxCell>
        <mxCell id="TgEvD71i9HujsNccT_gt-25" style="edgeStyle=orthogonalEdgeStyle;rounded=0;orthogonalLoop=1;jettySize=auto;html=1;entryX=0;entryY=0.5;entryDx=0;entryDy=0;" edge="1" parent="1" source="TgEvD71i9HujsNccT_gt-7" target="TgEvD71i9HujsNccT_gt-24">
          <mxGeometry relative="1" as="geometry" />
        </mxCell>
        <mxCell id="TgEvD71i9HujsNccT_gt-7" value="Login" style="rounded=1;whiteSpace=wrap;html=1;" vertex="1" parent="1">
          <mxGeometry x="290" y="145" width="120" height="60" as="geometry" />
        </mxCell>
        <mxCell id="TgEvD71i9HujsNccT_gt-14" style="edgeStyle=orthogonalEdgeStyle;rounded=0;orthogonalLoop=1;jettySize=auto;html=1;" edge="1" parent="1" source="TgEvD71i9HujsNccT_gt-8" target="TgEvD71i9HujsNccT_gt-13">
          <mxGeometry relative="1" as="geometry" />
        </mxCell>
        <mxCell id="TgEvD71i9HujsNccT_gt-8" value="Register" style="rounded=1;whiteSpace=wrap;html=1;" vertex="1" parent="1">
          <mxGeometry x="110" y="270" width="120" height="60" as="geometry" />
        </mxCell>
        <mxCell id="TgEvD71i9HujsNccT_gt-15" style="edgeStyle=orthogonalEdgeStyle;rounded=0;orthogonalLoop=1;jettySize=auto;html=1;entryX=0;entryY=0.5;entryDx=0;entryDy=0;" edge="1" parent="1" source="TgEvD71i9HujsNccT_gt-13" target="TgEvD71i9HujsNccT_gt-8">
          <mxGeometry relative="1" as="geometry">
            <Array as="points">
              <mxPoint x="40" y="440" />
              <mxPoint x="40" y="300" />
            </Array>
          </mxGeometry>
        </mxCell>
        <mxCell id="TgEvD71i9HujsNccT_gt-20" value="No" style="edgeLabel;html=1;align=center;verticalAlign=middle;resizable=0;points=[];" vertex="1" connectable="0" parent="TgEvD71i9HujsNccT_gt-15">
          <mxGeometry x="-0.7589" y="-2" relative="1" as="geometry">
            <mxPoint y="2" as="offset" />
          </mxGeometry>
        </mxCell>
        <mxCell id="TgEvD71i9HujsNccT_gt-22" style="edgeStyle=orthogonalEdgeStyle;rounded=0;orthogonalLoop=1;jettySize=auto;html=1;entryX=0.5;entryY=1;entryDx=0;entryDy=0;" edge="1" parent="1" source="TgEvD71i9HujsNccT_gt-13" target="TgEvD71i9HujsNccT_gt-7">
          <mxGeometry relative="1" as="geometry" />
        </mxCell>
        <mxCell id="TgEvD71i9HujsNccT_gt-23" value="Yes" style="edgeLabel;html=1;align=center;verticalAlign=middle;resizable=0;points=[];" vertex="1" connectable="0" parent="TgEvD71i9HujsNccT_gt-22">
          <mxGeometry x="-0.7253" relative="1" as="geometry">
            <mxPoint as="offset" />
          </mxGeometry>
        </mxCell>
        <mxCell id="TgEvD71i9HujsNccT_gt-13" value="Succes" style="rhombus;whiteSpace=wrap;html=1;" vertex="1" parent="1">
          <mxGeometry x="130" y="400" width="80" height="80" as="geometry" />
        </mxCell>
        <mxCell id="TgEvD71i9HujsNccT_gt-21" value="Error" style="text;html=1;align=center;verticalAlign=middle;whiteSpace=wrap;rounded=0;" vertex="1" parent="1">
          <mxGeometry x="25" y="330" width="60" height="30" as="geometry" />
        </mxCell>
        <mxCell id="TgEvD71i9HujsNccT_gt-26" style="edgeStyle=orthogonalEdgeStyle;rounded=0;orthogonalLoop=1;jettySize=auto;html=1;entryX=0.5;entryY=0;entryDx=0;entryDy=0;" edge="1" parent="1" source="TgEvD71i9HujsNccT_gt-24" target="TgEvD71i9HujsNccT_gt-7">
          <mxGeometry relative="1" as="geometry">
            <Array as="points">
              <mxPoint x="560" y="90" />
              <mxPoint x="350" y="90" />
            </Array>
          </mxGeometry>
        </mxCell>
        <mxCell id="TgEvD71i9HujsNccT_gt-27" value="No" style="edgeLabel;html=1;align=center;verticalAlign=middle;resizable=0;points=[];" vertex="1" connectable="0" parent="TgEvD71i9HujsNccT_gt-26">
          <mxGeometry x="-0.8395" y="1" relative="1" as="geometry">
            <mxPoint as="offset" />
          </mxGeometry>
        </mxCell>
        <mxCell id="TgEvD71i9HujsNccT_gt-30" style="edgeStyle=orthogonalEdgeStyle;rounded=0;orthogonalLoop=1;jettySize=auto;html=1;entryX=0;entryY=0.5;entryDx=0;entryDy=0;" edge="1" parent="1" source="TgEvD71i9HujsNccT_gt-24" target="TgEvD71i9HujsNccT_gt-29">
          <mxGeometry relative="1" as="geometry" />
        </mxCell>
        <mxCell id="TgEvD71i9HujsNccT_gt-31" value="Yes" style="edgeLabel;html=1;align=center;verticalAlign=middle;resizable=0;points=[];" vertex="1" connectable="0" parent="TgEvD71i9HujsNccT_gt-30">
          <mxGeometry x="-0.3593" y="1" relative="1" as="geometry">
            <mxPoint as="offset" />
          </mxGeometry>
        </mxCell>
        <mxCell id="TgEvD71i9HujsNccT_gt-24" value="Success" style="rhombus;whiteSpace=wrap;html=1;" vertex="1" parent="1">
          <mxGeometry x="520" y="135" width="80" height="80" as="geometry" />
        </mxCell>
        <mxCell id="TgEvD71i9HujsNccT_gt-28" value="Error" style="text;html=1;align=center;verticalAlign=middle;whiteSpace=wrap;rounded=0;" vertex="1" parent="1">
          <mxGeometry x="430" y="60" width="60" height="30" as="geometry" />
        </mxCell>
        <mxCell id="TgEvD71i9HujsNccT_gt-34" style="edgeStyle=orthogonalEdgeStyle;rounded=0;orthogonalLoop=1;jettySize=auto;html=1;" edge="1" parent="1" source="TgEvD71i9HujsNccT_gt-29" target="TgEvD71i9HujsNccT_gt-32">
          <mxGeometry relative="1" as="geometry" />
        </mxCell>
        <mxCell id="TgEvD71i9HujsNccT_gt-35" value="No" style="edgeLabel;html=1;align=center;verticalAlign=middle;resizable=0;points=[];" vertex="1" connectable="0" parent="TgEvD71i9HujsNccT_gt-34">
          <mxGeometry x="-0.4476" y="2" relative="1" as="geometry">
            <mxPoint as="offset" />
          </mxGeometry>
        </mxCell>
        <mxCell id="TgEvD71i9HujsNccT_gt-36" style="edgeStyle=orthogonalEdgeStyle;rounded=0;orthogonalLoop=1;jettySize=auto;html=1;entryX=0;entryY=0.5;entryDx=0;entryDy=0;" edge="1" parent="1" source="TgEvD71i9HujsNccT_gt-29" target="TgEvD71i9HujsNccT_gt-33">
          <mxGeometry relative="1" as="geometry" />
        </mxCell>
        <mxCell id="TgEvD71i9HujsNccT_gt-38" value="Yes" style="edgeLabel;html=1;align=center;verticalAlign=middle;resizable=0;points=[];" vertex="1" connectable="0" parent="TgEvD71i9HujsNccT_gt-36">
          <mxGeometry x="-0.1587" y="-1" relative="1" as="geometry">
            <mxPoint x="-1" as="offset" />
          </mxGeometry>
        </mxCell>
        <mxCell id="TgEvD71i9HujsNccT_gt-29" value="Admin" style="rhombus;whiteSpace=wrap;html=1;" vertex="1" parent="1">
          <mxGeometry x="730" y="135" width="80" height="80" as="geometry" />
        </mxCell>
        <mxCell id="TgEvD71i9HujsNccT_gt-49" style="edgeStyle=orthogonalEdgeStyle;rounded=0;orthogonalLoop=1;jettySize=auto;html=1;entryX=0.5;entryY=0;entryDx=0;entryDy=0;" edge="1" parent="1" source="TgEvD71i9HujsNccT_gt-32" target="TgEvD71i9HujsNccT_gt-44">
          <mxGeometry relative="1" as="geometry" />
        </mxCell>
        <mxCell id="TgEvD71i9HujsNccT_gt-51" value="User" style="edgeLabel;html=1;align=center;verticalAlign=middle;resizable=0;points=[];" vertex="1" connectable="0" parent="TgEvD71i9HujsNccT_gt-49">
          <mxGeometry x="-0.4241" relative="1" as="geometry">
            <mxPoint as="offset" />
          </mxGeometry>
        </mxCell>
        <mxCell id="TgEvD71i9HujsNccT_gt-50" style="edgeStyle=orthogonalEdgeStyle;rounded=0;orthogonalLoop=1;jettySize=auto;html=1;entryX=0.5;entryY=0;entryDx=0;entryDy=0;" edge="1" parent="1" source="TgEvD71i9HujsNccT_gt-32" target="TgEvD71i9HujsNccT_gt-48">
          <mxGeometry relative="1" as="geometry" />
        </mxCell>
        <mxCell id="TgEvD71i9HujsNccT_gt-52" value="Member" style="edgeLabel;html=1;align=center;verticalAlign=middle;resizable=0;points=[];" vertex="1" connectable="0" parent="TgEvD71i9HujsNccT_gt-50">
          <mxGeometry x="-0.4333" y="2" relative="1" as="geometry">
            <mxPoint x="-11" y="2" as="offset" />
          </mxGeometry>
        </mxCell>
        <mxCell id="TgEvD71i9HujsNccT_gt-32" value="Open Member/User UI" style="rounded=1;whiteSpace=wrap;html=1;" vertex="1" parent="1">
          <mxGeometry x="710" y="300" width="120" height="60" as="geometry" />
        </mxCell>
        <mxCell id="TgEvD71i9HujsNccT_gt-83" style="edgeStyle=orthogonalEdgeStyle;rounded=0;orthogonalLoop=1;jettySize=auto;html=1;entryX=0.5;entryY=0;entryDx=0;entryDy=0;" edge="1" parent="1" source="TgEvD71i9HujsNccT_gt-33" target="TgEvD71i9HujsNccT_gt-45">
          <mxGeometry relative="1" as="geometry">
            <Array as="points">
              <mxPoint x="1340" y="175" />
            </Array>
          </mxGeometry>
        </mxCell>
        <mxCell id="TgEvD71i9HujsNccT_gt-33" value="Open Admin UI" style="rounded=1;whiteSpace=wrap;html=1;" vertex="1" parent="1">
          <mxGeometry x="1090" y="145" width="120" height="60" as="geometry" />
        </mxCell>
        <mxCell id="TgEvD71i9HujsNccT_gt-44" value="" style="rounded=0;whiteSpace=wrap;html=1;fillColor=#030303;" vertex="1" parent="1">
          <mxGeometry x="455" y="430" width="120" height="10" as="geometry" />
        </mxCell>
        <mxCell id="TgEvD71i9HujsNccT_gt-91" style="edgeStyle=orthogonalEdgeStyle;rounded=0;orthogonalLoop=1;jettySize=auto;html=1;entryX=0.5;entryY=0;entryDx=0;entryDy=0;" edge="1" parent="1" source="TgEvD71i9HujsNccT_gt-45" target="TgEvD71i9HujsNccT_gt-67">
          <mxGeometry relative="1" as="geometry" />
        </mxCell>
        <mxCell id="TgEvD71i9HujsNccT_gt-113" style="edgeStyle=orthogonalEdgeStyle;rounded=0;orthogonalLoop=1;jettySize=auto;html=1;entryX=0;entryY=0.5;entryDx=0;entryDy=0;" edge="1" parent="1" source="TgEvD71i9HujsNccT_gt-45" target="TgEvD71i9HujsNccT_gt-112">
          <mxGeometry relative="1" as="geometry" />
        </mxCell>
        <mxCell id="TgEvD71i9HujsNccT_gt-45" value="" style="rounded=0;whiteSpace=wrap;html=1;fillColor=#030303;" vertex="1" parent="1">
          <mxGeometry x="1280" y="280" width="120" height="10" as="geometry" />
        </mxCell>
        <mxCell id="TgEvD71i9HujsNccT_gt-48" value="" style="rounded=0;whiteSpace=wrap;html=1;fillColor=#030303;" vertex="1" parent="1">
          <mxGeometry x="850" y="390" width="120" height="10" as="geometry" />
        </mxCell>
        <mxCell id="TgEvD71i9HujsNccT_gt-107" style="edgeStyle=orthogonalEdgeStyle;rounded=0;orthogonalLoop=1;jettySize=auto;html=1;entryX=0.5;entryY=0;entryDx=0;entryDy=0;" edge="1" parent="1" source="TgEvD71i9HujsNccT_gt-53" target="TgEvD71i9HujsNccT_gt-99">
          <mxGeometry relative="1" as="geometry" />
        </mxCell>
        <mxCell id="TgEvD71i9HujsNccT_gt-53" value="Logout" style="rounded=1;whiteSpace=wrap;html=1;" vertex="1" parent="1">
          <mxGeometry x="340" y="510" width="80" height="40" as="geometry" />
        </mxCell>
        <mxCell id="TgEvD71i9HujsNccT_gt-111" style="edgeStyle=orthogonalEdgeStyle;rounded=0;orthogonalLoop=1;jettySize=auto;html=1;" edge="1" parent="1" source="TgEvD71i9HujsNccT_gt-54" target="TgEvD71i9HujsNccT_gt-101">
          <mxGeometry relative="1" as="geometry">
            <Array as="points">
              <mxPoint x="780" y="580" />
              <mxPoint x="780" y="580" />
            </Array>
          </mxGeometry>
        </mxCell>
        <mxCell id="TgEvD71i9HujsNccT_gt-54" value="Logout" style="rounded=1;whiteSpace=wrap;html=1;" vertex="1" parent="1">
          <mxGeometry x="740" y="430" width="80" height="40" as="geometry" />
        </mxCell>
        <mxCell id="TgEvD71i9HujsNccT_gt-106" style="edgeStyle=orthogonalEdgeStyle;rounded=0;orthogonalLoop=1;jettySize=auto;html=1;entryX=0.5;entryY=0;entryDx=0;entryDy=0;" edge="1" parent="1" source="TgEvD71i9HujsNccT_gt-55" target="TgEvD71i9HujsNccT_gt-102">
          <mxGeometry relative="1" as="geometry" />
        </mxCell>
        <mxCell id="TgEvD71i9HujsNccT_gt-55" value="Logout" style="rounded=1;whiteSpace=wrap;html=1;" vertex="1" parent="1">
          <mxGeometry x="1120" y="330" width="80" height="40" as="geometry" />
        </mxCell>
        <mxCell id="TgEvD71i9HujsNccT_gt-56" value="Edit Profile" style="rounded=1;whiteSpace=wrap;html=1;" vertex="1" parent="1">
          <mxGeometry x="430" y="510" width="80" height="40" as="geometry" />
        </mxCell>
        <mxCell id="TgEvD71i9HujsNccT_gt-57" value="Edit Profile" style="rounded=1;whiteSpace=wrap;html=1;" vertex="1" parent="1">
          <mxGeometry x="800" y="495" width="80" height="40" as="geometry" />
        </mxCell>
        <mxCell id="TgEvD71i9HujsNccT_gt-58" value="Edit Profile" style="rounded=1;whiteSpace=wrap;html=1;" vertex="1" parent="1">
          <mxGeometry x="1240" y="330" width="80" height="40" as="geometry" />
        </mxCell>
        <mxCell id="TgEvD71i9HujsNccT_gt-59" value="Taxed Events" style="rounded=1;whiteSpace=wrap;html=1;" vertex="1" parent="1">
          <mxGeometry x="520" y="510" width="80" height="40" as="geometry" />
        </mxCell>
        <mxCell id="TgEvD71i9HujsNccT_gt-61" value="Events" style="rounded=1;whiteSpace=wrap;html=1;" vertex="1" parent="1">
          <mxGeometry x="870" y="430" width="80" height="40" as="geometry" />
        </mxCell>
        <mxCell id="TgEvD71i9HujsNccT_gt-62" value="Events + Free Resource" style="rounded=1;whiteSpace=wrap;html=1;" vertex="1" parent="1">
          <mxGeometry x="1360" y="330" width="80" height="40" as="geometry" />
        </mxCell>
        <mxCell id="TgEvD71i9HujsNccT_gt-64" value="Subscription" style="rounded=1;whiteSpace=wrap;html=1;" vertex="1" parent="1">
          <mxGeometry x="930" y="495" width="80" height="40" as="geometry" />
        </mxCell>
        <mxCell id="TgEvD71i9HujsNccT_gt-65" value="Manage Members" style="rounded=1;whiteSpace=wrap;html=1;" vertex="1" parent="1">
          <mxGeometry x="1490" y="330" width="80" height="40" as="geometry" />
        </mxCell>
        <mxCell id="TgEvD71i9HujsNccT_gt-66" value="Manage Reports" style="rounded=1;whiteSpace=wrap;html=1;" vertex="1" parent="1">
          <mxGeometry x="1180" y="390" width="80" height="40" as="geometry" />
        </mxCell>
        <mxCell id="TgEvD71i9HujsNccT_gt-67" value="Manage Subscriptions" style="rounded=1;whiteSpace=wrap;html=1;" vertex="1" parent="1">
          <mxGeometry x="1300" y="390" width="80" height="40" as="geometry" />
        </mxCell>
        <mxCell id="TgEvD71i9HujsNccT_gt-68" value="Inbox" style="rounded=1;whiteSpace=wrap;html=1;" vertex="1" parent="1">
          <mxGeometry x="610" y="510" width="80" height="40" as="geometry" />
        </mxCell>
        <mxCell id="TgEvD71i9HujsNccT_gt-69" value="Inbox" style="rounded=1;whiteSpace=wrap;html=1;" vertex="1" parent="1">
          <mxGeometry x="990" y="430" width="80" height="40" as="geometry" />
        </mxCell>
        <mxCell id="TgEvD71i9HujsNccT_gt-70" value="Inbox" style="rounded=1;whiteSpace=wrap;html=1;" vertex="1" parent="1">
          <mxGeometry x="1430" y="390" width="80" height="40" as="geometry" />
        </mxCell>
        <mxCell id="TgEvD71i9HujsNccT_gt-74" value="" style="endArrow=classic;html=1;rounded=0;exitX=0;exitY=1;exitDx=0;exitDy=0;entryX=0.529;entryY=-0.109;entryDx=0;entryDy=0;entryPerimeter=0;" edge="1" parent="1" source="TgEvD71i9HujsNccT_gt-44" target="TgEvD71i9HujsNccT_gt-53">
          <mxGeometry width="50" height="50" relative="1" as="geometry">
            <mxPoint x="525" y="440" as="sourcePoint" />
            <mxPoint x="575" y="390" as="targetPoint" />
          </mxGeometry>
        </mxCell>
        <mxCell id="TgEvD71i9HujsNccT_gt-75" value="" style="endArrow=classic;html=1;rounded=0;exitX=0;exitY=1;exitDx=0;exitDy=0;entryX=0.5;entryY=0;entryDx=0;entryDy=0;" edge="1" parent="1" target="TgEvD71i9HujsNccT_gt-56">
          <mxGeometry width="50" height="50" relative="1" as="geometry">
            <mxPoint x="493" y="440" as="sourcePoint" />
            <mxPoint x="420" y="506" as="targetPoint" />
          </mxGeometry>
        </mxCell>
        <mxCell id="TgEvD71i9HujsNccT_gt-76" value="" style="endArrow=classic;html=1;rounded=0;exitX=0;exitY=1;exitDx=0;exitDy=0;entryX=0.5;entryY=0;entryDx=0;entryDy=0;" edge="1" parent="1" target="TgEvD71i9HujsNccT_gt-59">
          <mxGeometry width="50" height="50" relative="1" as="geometry">
            <mxPoint x="535" y="440" as="sourcePoint" />
            <mxPoint x="462" y="506" as="targetPoint" />
          </mxGeometry>
        </mxCell>
        <mxCell id="TgEvD71i9HujsNccT_gt-77" value="" style="endArrow=classic;html=1;rounded=0;exitX=1;exitY=1;exitDx=0;exitDy=0;entryX=0.5;entryY=0;entryDx=0;entryDy=0;" edge="1" parent="1" source="TgEvD71i9HujsNccT_gt-44" target="TgEvD71i9HujsNccT_gt-68">
          <mxGeometry width="50" height="50" relative="1" as="geometry">
            <mxPoint x="485" y="470" as="sourcePoint" />
            <mxPoint x="412" y="536" as="targetPoint" />
          </mxGeometry>
        </mxCell>
        <mxCell id="TgEvD71i9HujsNccT_gt-78" value="" style="endArrow=classic;html=1;rounded=0;exitX=0;exitY=1;exitDx=0;exitDy=0;entryX=0.5;entryY=0;entryDx=0;entryDy=0;" edge="1" parent="1" source="TgEvD71i9HujsNccT_gt-48" target="TgEvD71i9HujsNccT_gt-54">
          <mxGeometry width="50" height="50" relative="1" as="geometry">
            <mxPoint x="840" y="380" as="sourcePoint" />
            <mxPoint x="890" y="330" as="targetPoint" />
          </mxGeometry>
        </mxCell>
        <mxCell id="TgEvD71i9HujsNccT_gt-79" value="" style="endArrow=classic;html=1;rounded=0;exitX=0.156;exitY=1.222;exitDx=0;exitDy=0;entryX=0.5;entryY=0;entryDx=0;entryDy=0;exitPerimeter=0;" edge="1" parent="1" source="TgEvD71i9HujsNccT_gt-48" target="TgEvD71i9HujsNccT_gt-57">
          <mxGeometry width="50" height="50" relative="1" as="geometry">
            <mxPoint x="860" y="410" as="sourcePoint" />
            <mxPoint x="790" y="440" as="targetPoint" />
          </mxGeometry>
        </mxCell>
        <mxCell id="TgEvD71i9HujsNccT_gt-80" value="" style="endArrow=classic;html=1;rounded=0;exitX=0.5;exitY=1;exitDx=0;exitDy=0;entryX=0.5;entryY=0;entryDx=0;entryDy=0;" edge="1" parent="1" source="TgEvD71i9HujsNccT_gt-48" target="TgEvD71i9HujsNccT_gt-61">
          <mxGeometry width="50" height="50" relative="1" as="geometry">
            <mxPoint x="870" y="420" as="sourcePoint" />
            <mxPoint x="800" y="450" as="targetPoint" />
          </mxGeometry>
        </mxCell>
        <mxCell id="TgEvD71i9HujsNccT_gt-81" value="" style="endArrow=classic;html=1;rounded=0;exitX=0.892;exitY=1.163;exitDx=0;exitDy=0;entryX=0.5;entryY=0;entryDx=0;entryDy=0;exitPerimeter=0;" edge="1" parent="1" source="TgEvD71i9HujsNccT_gt-48" target="TgEvD71i9HujsNccT_gt-64">
          <mxGeometry width="50" height="50" relative="1" as="geometry">
            <mxPoint x="880" y="430" as="sourcePoint" />
            <mxPoint x="810" y="460" as="targetPoint" />
          </mxGeometry>
        </mxCell>
        <mxCell id="TgEvD71i9HujsNccT_gt-82" value="" style="endArrow=classic;html=1;rounded=0;exitX=1;exitY=1;exitDx=0;exitDy=0;entryX=0.5;entryY=0;entryDx=0;entryDy=0;" edge="1" parent="1" source="TgEvD71i9HujsNccT_gt-48" target="TgEvD71i9HujsNccT_gt-69">
          <mxGeometry width="50" height="50" relative="1" as="geometry">
            <mxPoint x="890" y="440" as="sourcePoint" />
            <mxPoint x="820" y="470" as="targetPoint" />
          </mxGeometry>
        </mxCell>
        <mxCell id="TgEvD71i9HujsNccT_gt-85" value="" style="endArrow=classic;html=1;rounded=0;exitX=0;exitY=1;exitDx=0;exitDy=0;entryX=0.5;entryY=0;entryDx=0;entryDy=0;" edge="1" parent="1" source="TgEvD71i9HujsNccT_gt-45" target="TgEvD71i9HujsNccT_gt-55">
          <mxGeometry width="50" height="50" relative="1" as="geometry">
            <mxPoint x="1230" y="240" as="sourcePoint" />
            <mxPoint x="1280" y="190" as="targetPoint" />
          </mxGeometry>
        </mxCell>
        <mxCell id="TgEvD71i9HujsNccT_gt-87" value="" style="endArrow=classic;html=1;rounded=0;exitX=0.25;exitY=1;exitDx=0;exitDy=0;entryX=0.5;entryY=0;entryDx=0;entryDy=0;" edge="1" parent="1" source="TgEvD71i9HujsNccT_gt-45" target="TgEvD71i9HujsNccT_gt-58">
          <mxGeometry width="50" height="50" relative="1" as="geometry">
            <mxPoint x="1300" y="310" as="sourcePoint" />
            <mxPoint x="1180" y="350" as="targetPoint" />
          </mxGeometry>
        </mxCell>
        <mxCell id="TgEvD71i9HujsNccT_gt-88" value="" style="curved=1;endArrow=classic;html=1;rounded=0;entryX=0.5;entryY=0;entryDx=0;entryDy=0;exitX=0.136;exitY=0.941;exitDx=0;exitDy=0;exitPerimeter=0;" edge="1" parent="1" source="TgEvD71i9HujsNccT_gt-45" target="TgEvD71i9HujsNccT_gt-66">
          <mxGeometry width="50" height="50" relative="1" as="geometry">
            <mxPoint x="1280" y="300" as="sourcePoint" />
            <mxPoint x="1230" y="350" as="targetPoint" />
            <Array as="points">
              <mxPoint x="1270" y="300" />
              <mxPoint x="1240" y="320" />
              <mxPoint x="1220" y="350" />
            </Array>
          </mxGeometry>
        </mxCell>
        <mxCell id="TgEvD71i9HujsNccT_gt-92" value="" style="endArrow=classic;html=1;rounded=0;" edge="1" parent="1">
          <mxGeometry width="50" height="50" relative="1" as="geometry">
            <mxPoint x="1360" y="285" as="sourcePoint" />
            <mxPoint x="1400" y="330" as="targetPoint" />
          </mxGeometry>
        </mxCell>
        <mxCell id="TgEvD71i9HujsNccT_gt-93" value="" style="curved=1;endArrow=classic;html=1;rounded=0;entryX=0.5;entryY=0;entryDx=0;entryDy=0;exitX=0.89;exitY=0.9;exitDx=0;exitDy=0;exitPerimeter=0;" edge="1" parent="1" source="TgEvD71i9HujsNccT_gt-45">
          <mxGeometry width="50" height="50" relative="1" as="geometry">
            <mxPoint x="1546" y="290" as="sourcePoint" />
            <mxPoint x="1470" y="391" as="targetPoint" />
            <Array as="points">
              <mxPoint x="1410" y="301" />
              <mxPoint x="1450" y="320" />
              <mxPoint x="1470" y="350" />
            </Array>
          </mxGeometry>
        </mxCell>
        <mxCell id="TgEvD71i9HujsNccT_gt-94" value="" style="endArrow=classic;html=1;rounded=0;exitX=1;exitY=1;exitDx=0;exitDy=0;entryX=0.5;entryY=0;entryDx=0;entryDy=0;" edge="1" parent="1" source="TgEvD71i9HujsNccT_gt-45" target="TgEvD71i9HujsNccT_gt-65">
          <mxGeometry width="50" height="50" relative="1" as="geometry">
            <mxPoint x="1430" y="350" as="sourcePoint" />
            <mxPoint x="1480" y="300" as="targetPoint" />
          </mxGeometry>
        </mxCell>
        <mxCell id="TgEvD71i9HujsNccT_gt-97" value="" style="ellipse;whiteSpace=wrap;html=1;aspect=fixed;fillColor=#030303;" vertex="1" parent="1">
          <mxGeometry x="765" y="626.25" width="30" height="30" as="geometry" />
        </mxCell>
        <mxCell id="TgEvD71i9HujsNccT_gt-96" value="" style="ellipse;whiteSpace=wrap;html=1;aspect=fixed;fillColor=#030303;" vertex="1" parent="1">
          <mxGeometry x="365" y="636.25" width="30" height="30" as="geometry" />
        </mxCell>
        <mxCell id="TgEvD71i9HujsNccT_gt-98" value="" style="ellipse;whiteSpace=wrap;html=1;aspect=fixed;fillColor=#030303;" vertex="1" parent="1">
          <mxGeometry x="1146.25" y="500" width="30" height="30" as="geometry" />
        </mxCell>
        <mxCell id="TgEvD71i9HujsNccT_gt-99" value="" style="ellipse;whiteSpace=wrap;html=1;aspect=fixed;fillColor=none;strokeColor=#FF3333;" vertex="1" parent="1">
          <mxGeometry x="358.75" y="630" width="42.5" height="42.5" as="geometry" />
        </mxCell>
        <mxCell id="TgEvD71i9HujsNccT_gt-101" value="" style="ellipse;whiteSpace=wrap;html=1;aspect=fixed;fillColor=none;strokeColor=#FF3333;" vertex="1" parent="1">
          <mxGeometry x="758.75" y="620" width="42.5" height="42.5" as="geometry" />
        </mxCell>
        <mxCell id="TgEvD71i9HujsNccT_gt-102" value="" style="ellipse;whiteSpace=wrap;html=1;aspect=fixed;fillColor=none;strokeColor=#FF3333;" vertex="1" parent="1">
          <mxGeometry x="1140" y="493.75" width="42.5" height="42.5" as="geometry" />
        </mxCell>
        <mxCell id="TgEvD71i9HujsNccT_gt-108" value="Exit" style="text;html=1;align=center;verticalAlign=middle;resizable=0;points=[];autosize=1;strokeColor=none;fillColor=none;" vertex="1" parent="1">
          <mxGeometry x="395" y="636.25" width="40" height="30" as="geometry" />
        </mxCell>
        <mxCell id="TgEvD71i9HujsNccT_gt-109" value="Exit" style="text;html=1;align=center;verticalAlign=middle;resizable=0;points=[];autosize=1;strokeColor=none;fillColor=none;" vertex="1" parent="1">
          <mxGeometry x="795" y="626.25" width="40" height="30" as="geometry" />
        </mxCell>
        <mxCell id="TgEvD71i9HujsNccT_gt-110" value="Exit" style="text;html=1;align=center;verticalAlign=middle;resizable=0;points=[];autosize=1;strokeColor=none;fillColor=none;" vertex="1" parent="1">
          <mxGeometry x="1176.25" y="500" width="40" height="30" as="geometry" />
        </mxCell>
        <mxCell id="TgEvD71i9HujsNccT_gt-112" value="Manage Resources" style="rounded=1;whiteSpace=wrap;html=1;" vertex="1" parent="1">
          <mxGeometry x="1490" y="265" width="80" height="40" as="geometry" />
        </mxCell>
      </root>
    </mxGraphModel>
  </diagram>
</mxfile>
